<svg xmlns="http://www.w3.org/2000/svg" viewBox="0 0 170.08 226.77" fill="none">
  <defs>
    <linearGradient id="bg" x1="0" y1="0" x2="0" y2="1">
      <stop offset="0" stop-color="rgb(var(--zd-text))" />
      <stop offset="0.55" stop-color="rgb(var(--zd-primary-active))" />
      <stop offset="1" stop-color="rgb(var(--zd-secondary))" />
    </linearGradient>
    <pattern id="dots" width="10" height="10" patternUnits="userSpaceOnUse">
      <circle cx="2" cy="2" r="0.8" fill="rgb(var(--zd-bg))" opacity="0.08" />
    </pattern>
  </defs>

  <rect width="170.08" height="226.77" fill="url(#bg)" />
  <rect width="170.08" height="226.77" fill="url(#dots)" />
  <rect x="10" y="10" width="150.08" height="206.77" rx="14" stroke="rgb(var(--zd-border))" opacity="0.28" />

  <circle cx="85.04" cy="54" r="26" fill="rgb(var(--zd-bg-deep))" opacity="0.55" />
  <circle cx="85.04" cy="54" r="22" fill="rgb(var(--zd-secondary))" opacity="0.95" />

  <!-- cup -->
  <path
    d="M74 46h22v16c0 7-5 12-11 12s-11-5-11-12V46Z"
    stroke="rgb(var(--zd-bg))"
    stroke-width="4"
    stroke-linejoin="round"
    opacity="0.9"
  />
  <path
    d="M96 50h5c4 0 6 2 6 6s-2 6-6 6h-5"
    stroke="rgb(var(--zd-bg))"
    stroke-width="4"
    stroke-linecap="round"
    stroke-linejoin="round"
    opacity="0.9"
  />
  <path d="M76 41c2-4 4.8-6 9-6s7 2 9 6" stroke="rgb(var(--zd-focus))" stroke-width="4" stroke-linecap="round" opacity="0.25" />

  <path d="M-10 170 C 10 150, 50 196, 88 170 S 144 160, 214 194" stroke="rgb(var(--zd-secondary-hover))" stroke-width="12" opacity="0.16" stroke-linecap="round" />
  <path d="M-10 198 C 20 172, 56 214, 92 184 S 148 174, 214 210" stroke="rgb(var(--zd-surface))" stroke-width="7" opacity="0.10" stroke-linecap="round" />
</svg>
