<svg xmlns="http://www.w3.org/2000/svg" viewBox="0 0 170.08 226.77" fill="none">
  <defs>
    <linearGradient id="bg" x1="0" y1="0" x2="0" y2="1">
      <stop offset="0" stop-color="#0f1717" />
      <stop offset="0.55" stop-color="#05363d" />
      <stop offset="1" stop-color="#b8b09c" />
    </linearGradient>
    <pattern id="dots" width="12" height="12" patternUnits="userSpaceOnUse">
      <circle cx="2" cy="2" r="0.8" fill="#d7d2c3" opacity="0.10" />
    </pattern>
  </defs>

  <rect width="170.08" height="226.77" fill="url(#bg)" />
  <rect width="170.08" height="226.77" fill="url(#dots)" />
  <rect x="10" y="10" width="150.08" height="206.77" rx="14" stroke="#7f8a8a" opacity="0.28" />

  <circle cx="85.04" cy="54" r="26" fill="#0a1f22" opacity="0.55" />
  <circle cx="85.04" cy="54" r="22" fill="#b8b09c" opacity="0.95" />

  <!-- broom + sparkle -->
  <path d="M74 70l18-18" stroke="#c8fbff" stroke-width="4" stroke-linecap="round" opacity="0.9" />
  <path
    d="M92 52l8-8 6 6-8 8c-2 2-5 1-7-1s-3-5-1-7Z"
    stroke="#c8fbff"
    stroke-width="4"
    stroke-linejoin="round"
    opacity="0.9"
  />
  <path d="M68 44l2.5 5 5 2.5-5 2.5-2.5 5-2.5-5-5-2.5 5-2.5 2.5-5Z" fill="#7fe3f2" opacity="0.25" />

  <path d="M-10 170 C 14 148, 52 196, 90 170 S 146 160, 214 194" stroke="#d7d2c3" stroke-width="12" opacity="0.14" stroke-linecap="round" />
  <path d="M-10 198 C 20 172, 56 214, 92 184 S 148 174, 214 210" stroke="#23c1d2" stroke-width="7" opacity="0.10" stroke-linecap="round" />
</svg>
