<svg viewBox="0 0 170.08 226.77" fill="none">
  <defs>
    <linearGradient id="bg" x1="0" y1="0" x2="0" y2="1">
      <stop offset="0" stop-color="#3CA5E6" />
      <stop offset="0.55" stop-color="#3CA5E6" />
      <stop offset="1" stop-color="#3CA5E6" />
    </linearGradient>
    <pattern id="dots" width="10" height="10" patternUnits="userSpaceOnUse">
      <circle cx="2" cy="2" r="0.8" fill="#3CA5E6" opacity="0.10" />
    </pattern>
  </defs>

  <rect width="170.08" height="226.77" fill="url(#bg)" />
  <rect width="170.08" height="226.77" fill="url(#dots)" />
  <rect x="10" y="10" width="150.08" height="206.77" rx="14" stroke="#000000" opacity="0.30" />

  <circle cx="85.04" cy="54" r="26" fill="#000000" opacity="0.55" />
  <circle cx="85.04" cy="54" r="22" fill="#000000" opacity="0.95" />

  
  <g transform="translate(85.04 54) scale(0.5357) translate(-64 -64)">
    <circle cx="64" cy="52" r="14" fill="#000000" opacity="0.9" />
    <path d="M36 98c5-18 20-26 28-26s23 8 28 26" stroke="#000000" stroke-width="8" stroke-linecap="round" opacity="0.9" />
    <path d="M96 34l6 6" stroke="#000000" stroke-width="4" stroke-linecap="round" opacity="0.7" />
    <path d="M102 34l-6 6" stroke="#000000" stroke-width="4" stroke-linecap="round" opacity="0.7" />
  </g>

  <path d="M-10 170 C 24 146, 58 192, 96 166 S 150 154, 214 190" stroke="#000000" stroke-width="12" opacity="0.14" stroke-linecap="round" />
  <path d="M-10 198 C 24 174, 62 214, 100 188 S 154 178, 214 212" stroke="#000000" stroke-width="7" opacity="0.10" stroke-linecap="round" />
</svg>