<svg xmlns="http://www.w3.org/2000/svg" viewBox="0 0 170.08 226.77" fill="none">
  <defs>
    <linearGradient id="bg" x1="0" y1="0" x2="0" y2="1">
      <stop offset="0" stop-color="rgb(var(--zd-text))" />
      <stop offset="0.60" stop-color="rgb(var(--zd-primary-active))" />
      <stop offset="1" stop-color="rgb(var(--zd-surface-muted))" />
    </linearGradient>
    <pattern id="dots" width="12" height="12" patternUnits="userSpaceOnUse">
      <circle cx="2" cy="2" r="0.8" fill="rgb(var(--zd-surface))" opacity="0.12" />
    </pattern>
  </defs>

  <rect x="0" y="0" width="170.08" height="226.77" fill="url(#bg)" />
  <rect x="0" y="0" width="170.08" height="226.77" fill="url(#dots)" />

  <path
    d="M-18 166 C 12 140, 44 186, 80 160 S 138 150, 210 182"
    stroke="rgb(var(--zd-surface))"
    stroke-width="12"
    opacity="0.14"
    stroke-linecap="round"
  />
  <path
    d="M-10 196 C 22 170, 56 214, 92 184 S 146 174, 214 210"
    stroke="rgb(var(--zd-primary-hover))"
    stroke-width="7"
    opacity="0.10"
    stroke-linecap="round"
  />

  <rect x="8" y="8" width="154.08" height="210.77" rx="10" stroke="rgb(var(--zd-border))" opacity="0.30" />

  <circle cx="30" cy="34" r="17" fill="rgb(var(--zd-bg-deep))" opacity="0.55" />
  <circle cx="30" cy="34" r="15" fill="rgb(var(--zd-surface-muted))" opacity="0.95" />
  <path
    d="M22.5 27.5h15c2.3 0 4.2 1.9 4.2 4.2v13.4c0 2.3-1.9 4.2-4.2 4.2h-15c-2.3 0-4.2-1.9-4.2-4.2V31.7c0-2.3 1.9-4.2 4.2-4.2Z"
    fill="rgb(var(--zd-text))"
    opacity="0.75"
  />
  <path d="M23.6 33.2h12.9M23.6 37.8h12.9M23.6 42.4h9.5" stroke="rgb(var(--zd-bg))" stroke-width="1.6" opacity="0.9" stroke-linecap="round" />

  <path d="M96 78h56" stroke="rgb(var(--zd-border))" stroke-width="1.5" opacity="0.20" stroke-linecap="round" />
  <path d="M88 92h64" stroke="rgb(var(--zd-border))" stroke-width="1.5" opacity="0.18" stroke-linecap="round" />
  <path d="M84 106h68" stroke="rgb(var(--zd-border))" stroke-width="1.5" opacity="0.16" stroke-linecap="round" />
</svg>
