<svg xmlns="http://www.w3.org/2000/svg" viewBox="0 0 170.08 226.77" fill="none">
  <defs>
    <linearGradient id="bg" x1="0" y1="0" x2="0" y2="1">
      <stop offset="0" stop-color="#0f1717" />
      <stop offset="0.55" stop-color="#05363d" />
      <stop offset="1" stop-color="#0c6b78" />
    </linearGradient>
    <pattern id="dots" width="10" height="10" patternUnits="userSpaceOnUse">
      <circle cx="2" cy="2" r="0.8" fill="#7fe3f2" opacity="0.12" />
    </pattern>
  </defs>

  <rect x="0" y="0" width="170.08" height="226.77" fill="url(#bg)" />
  <rect x="0" y="0" width="170.08" height="226.77" fill="url(#dots)" />

  <path
    d="M-10 160 C 30 130, 70 180, 110 150 S 190 170, 210 140"
    stroke="#23c1d2"
    stroke-width="10"
    opacity="0.14"
    stroke-linecap="round"
  />
  <path
    d="M-20 186 C 25 156, 78 208, 120 178 S 190 194, 215 168"
    stroke="#7fe3f2"
    stroke-width="6"
    opacity="0.10"
    stroke-linecap="round"
  />

  <rect x="8" y="8" width="154.08" height="210.77" rx="10" stroke="#7f8a8a" opacity="0.35" />

  <circle cx="30" cy="34" r="17" fill="#0a1f22" opacity="0.55" />
  <circle cx="30" cy="34" r="15" fill="#0c6b78" opacity="0.95" />
  <path
    d="M30 20.8c-5.6 0-10.1 4.5-10.1 10.1 0 7.6 10.1 18.2 10.1 18.2s10.1-10.6 10.1-18.2c0-5.6-4.5-10.1-10.1-10.1Zm0 13.7a3.6 3.6 0 1 1 0-7.2 3.6 3.6 0 0 1 0 7.2Z"
    fill="#c8fbff"
    opacity="0.95"
  />

  <path
    d="M18 74c18-14 36-5 54-18 18-13 36-9 54 3 6 4 12 9 18 14"
    stroke="#b8b09c"
    stroke-width="2"
    opacity="0.20"
    stroke-linecap="round"
  />
  <path
    d="M16 92c22-16 40-7 60-20 20-13 38-8 58 7 4 3 8 6 20 16"
    stroke="#d7d2c3"
    stroke-width="1.5"
    opacity="0.18"
    stroke-linecap="round"
  />
</svg>
