<svg xmlns="http://www.w3.org/2000/svg" viewBox="0 0 170.08 226.77" fill="none">
  <defs>
    <linearGradient id="bg" x1="0" y1="0" x2="0" y2="1">
      <stop offset="0" stop-color="rgb(var(--zd-bg-deep))" />
      <stop offset="0.55" stop-color="rgb(var(--zd-primary-active))" />
      <stop offset="1" stop-color="rgb(var(--zd-secondary))" />
    </linearGradient>
    <pattern id="dots" width="10" height="10" patternUnits="userSpaceOnUse">
      <circle cx="2" cy="2" r="0.8" fill="rgb(var(--zd-bg))" opacity="0.10" />
    </pattern>
  </defs>

  <rect x="0" y="0" width="170.08" height="226.77" fill="url(#bg)" />
  <rect x="0" y="0" width="170.08" height="226.77" fill="url(#dots)" />

  <path
    d="M-20 170 C 15 145, 40 195, 78 170 S 135 160, 200 190"
    stroke="rgb(var(--zd-secondary-hover))"
    stroke-width="12"
    opacity="0.18"
    stroke-linecap="round"
  />
  <path
    d="M-10 200 C 25 175, 60 215, 98 190 S 150 178, 210 210"
    stroke="rgb(var(--zd-surface))"
    stroke-width="7"
    opacity="0.10"
    stroke-linecap="round"
  />

  <rect x="8" y="8" width="154.08" height="210.77" rx="10" stroke="rgb(var(--zd-border))" opacity="0.30" />

  <circle cx="30" cy="34" r="17" fill="rgb(var(--zd-text))" opacity="0.55" />
  <circle cx="30" cy="34" r="15" fill="rgb(var(--zd-secondary))" opacity="0.95" />
  <path
    d="M29.5 47.2c-6.3-8.9-6.4-17.3 1.3-22.4 4.3-2.9 9.4-2.2 12.3.3-2.5.1-4.9 1-6.8 2.7-5.1 4.7-4.2 12.1-1.1 19.4-1.6.4-3.5.2-5.7 0Zm-6.2-19.8c-1.6 6.6 1.8 13.2 8 19.3-5.8 1.5-11.1-2.6-12.4-9.1-.8-3.9.7-7.9 4.4-10.2Z"
    fill="rgb(var(--zd-bg))"
    opacity="0.95"
  />

  <path
    d="M18 74c12 4 18 18 30 22 12 4 28-2 44-2 20 0 30 10 52 20"
    stroke="rgb(var(--zd-bg))"
    stroke-width="1.8"
    opacity="0.18"
    stroke-linecap="round"
  />
  <path
    d="M20 90c10 6 16 18 28 24 18 9 40-7 70 8 10 5 18 10 24 14"
    stroke="rgb(var(--zd-surface-muted))"
    stroke-width="1.4"
    opacity="0.16"
    stroke-linecap="round"
  />
</svg>
