<svg viewBox="0 0 170.08 226.77" fill="none">
  <defs>
    <linearGradient id="bg" x1="0" y1="0" x2="0" y2="1">
      <stop offset="0" stop-color="#3CA5E6" />
      <stop offset="0.55" stop-color="#3CA5E6" />
      <stop offset="1" stop-color="#3CA5E6" />
    </linearGradient>
    <pattern id="dots" width="10" height="10" patternUnits="userSpaceOnUse">
      <circle cx="2" cy="2" r="0.8" fill="#3CA5E6" opacity="0.12" />
    </pattern>
  </defs>

  <rect width="170.08" height="226.77" fill="url(#bg)" />
  <rect width="170.08" height="226.77" fill="url(#dots)" />
  <rect x="10" y="10" width="150.08" height="206.77" rx="14" stroke="#000000" opacity="0.30" />

  
  <circle cx="85.04" cy="54" r="26" fill="#000000" opacity="0.55" />
  <circle cx="85.04" cy="54" r="22" fill="#000000" opacity="0.95" />
  <rect x="74" y="40" width="22" height="30" rx="6" stroke="#000000" stroke-width="3" opacity="0.9" />
  <path d="M79 50h12M79 58h9" stroke="#000000" stroke-width="3" stroke-linecap="round" opacity="0.65" />
  <path d="M78.5 63.5l3.5 3.5 9-9" stroke="#000000" stroke-width="3.5" stroke-linecap="round" stroke-linejoin="round" opacity="0.9" />

  
  <path d="M-10 170 C 28 142, 56 198, 92 170 S 140 160, 210 192" stroke="#000000" stroke-width="12" opacity="0.14" stroke-linecap="round" />
  <path d="M-10 198 C 26 172, 64 214, 102 186 S 152 176, 214 212" stroke="#000000" stroke-width="7" opacity="0.10" stroke-linecap="round" />
</svg>