<svg viewBox="0 0 170.08 226.77" fill="none">
  <defs>
    <linearGradient id="bg" x1="0" y1="0" x2="0" y2="1">
      <stop offset="0" stop-color="#3CA5E6" />
      <stop offset="0.55" stop-color="#3CA5E6" />
      <stop offset="1" stop-color="#3CA5E6" />
    </linearGradient>
    <pattern id="dots" width="10" height="10" patternUnits="userSpaceOnUse">
      <circle cx="2" cy="2" r="0.8" fill="#3CA5E6" opacity="0.10" />
    </pattern>
  </defs>

  <rect width="170.08" height="226.77" fill="url(#bg)" />
  <rect width="170.08" height="226.77" fill="url(#dots)" />
  <rect x="10" y="10" width="150.08" height="206.77" rx="14" stroke="#000000" opacity="0.30" />

  <circle cx="85.04" cy="54" r="26" fill="#000000" opacity="0.55" />
  <circle cx="85.04" cy="54" r="22" fill="#000000" opacity="0.95" />

  
  <circle cx="85.04" cy="54" r="12.5" stroke="#000000" stroke-width="5" opacity="0.9" />
  <circle cx="85.04" cy="54" r="3.5" fill="#000000" opacity="0.9" />
  <path d="M85.04 37v7M85.04 67v7M68 54h7M95 54h7" stroke="#000000" stroke-width="4" stroke-linecap="round" opacity="0.9" />
  <path d="M73 42l5 5M97 66l-5-5M97 42l-5 5M73 66l5-5" stroke="#000000" stroke-width="4" stroke-linecap="round" opacity="0.35" />

  <path d="M-10 168 C 18 142, 50 190, 86 164 S 142 152, 214 186" stroke="#000000" stroke-width="12" opacity="0.16" stroke-linecap="round" />
  <path d="M-10 198 C 20 172, 56 214, 92 184 S 148 174, 214 210" stroke="#000000" stroke-width="7" opacity="0.10" stroke-linecap="round" />
</svg>