<svg xmlns="http://www.w3.org/2000/svg" viewBox="0 0 170.08 226.77" fill="none">
  <defs>
    <linearGradient id="bg" x1="0" y1="0" x2="0" y2="1">
      <stop offset="0" stop-color="#0F1717" />
      <stop offset="0.55" stop-color="#05363D" />
      <stop offset="1" stop-color="#6AA85A" />
    </linearGradient>
    <pattern id="dots" width="10" height="10" patternUnits="userSpaceOnUse">
      <circle cx="2" cy="2" r="0.8" fill="#C8FBFF" opacity="0.08" />
    </pattern>
  </defs>

  <rect width="170.08" height="226.77" fill="url(#bg)" />
  <rect width="170.08" height="226.77" fill="url(#dots)" />
  <rect x="10" y="10" width="150.08" height="206.77" rx="14" stroke="#7F8A8A" opacity="0.28" />

  <circle cx="85.04" cy="54" r="26" fill="#0A1F22" opacity="0.55" />
  <circle cx="85.04" cy="54" r="22" fill="#6AA85A" opacity="0.95" />

  <!-- map pin -->
  <path
    d="M85.04 40C76.24 40 69.04 47.1 69.04 56C69.04 67.5 85.04 74 85.04 74C85.04 74 101.04 67.5 101.04 56C101.04 47.1 93.84 40 85.04 40Z"
    stroke="#C8FBFF"
    stroke-width="4"
    stroke-linejoin="round"
    opacity="0.9"
  />
  <circle cx="85.04" cy="56" r="4.5" fill="#C8FBFF" opacity="0.9" />

  <path d="M-10 170 C 10 150, 50 196, 88 170 S 144 160, 214 194" stroke="#7FB56B" stroke-width="12" opacity="0.16" stroke-linecap="round" />
  <path d="M-10 198 C 20 172, 56 214, 92 184 S 148 174, 214 210" stroke="#D7D2C3" stroke-width="7" opacity="0.10" stroke-linecap="round" />
</svg>
