<svg xmlns="http://www.w3.org/2000/svg" viewBox="0 0 170.08 226.77" fill="none">
  <defs>
    <linearGradient id="bg" x1="0" y1="0" x2="0" y2="1">
      <stop offset="0" stop-color="#0A1F22" />
      <stop offset="0.55" stop-color="#05363D" />
      <stop offset="1" stop-color="#23C1D2" />
    </linearGradient>
    <pattern id="dots" width="12" height="12" patternUnits="userSpaceOnUse">
      <circle cx="2" cy="2" r="0.8" fill="#7FE3F2" opacity="0.12" />
    </pattern>
  </defs>

  <rect width="170.08" height="226.77" fill="url(#bg)" />
  <rect width="170.08" height="226.77" fill="url(#dots)" />
  <rect x="10" y="10" width="150.08" height="206.77" rx="14" stroke="#7F8A8A" opacity="0.28" />

  <circle cx="85.04" cy="54" r="26" fill="#0F1717" opacity="0.55" />
  <circle cx="85.04" cy="54" r="22" fill="#23C1D2" opacity="0.95" />

  <!-- wings -->
  <path d="M85.04 56C76 50 69 52 66 58c6 2 12 5 19.04 10 7.04-5 13.04-8 19.04-10-3-6-10-8-19.04-2Z" stroke="#C8FBFF" stroke-width="4" stroke-linejoin="round" opacity="0.9" />
  <path d="M85.04 52v18" stroke="#7FE3F2" stroke-width="3.5" stroke-linecap="round" opacity="0.25" />

  <path d="M-10 170 C 18 146, 52 190, 88 166 S 142 154, 214 188" stroke="#7FE3F2" stroke-width="12" opacity="0.16" stroke-linecap="round" />
  <path d="M-10 198 C 20 172, 56 214, 92 184 S 148 174, 214 210" stroke="#D7D2C3" stroke-width="7" opacity="0.10" stroke-linecap="round" />
</svg>
