<svg xmlns="http://www.w3.org/2000/svg" viewBox="0 0 170.08 226.77" fill="none">
  <defs>
    <linearGradient id="bg" x1="0" y1="0" x2="0" y2="1">
      <stop offset="0" stop-color="#0f1717" />
      <stop offset="0.55" stop-color="#05363d" />
      <stop offset="1" stop-color="#0c6b78" />
    </linearGradient>
    <pattern id="dots" width="10" height="10" patternUnits="userSpaceOnUse">
      <circle cx="2" cy="2" r="0.8" fill="#7fe3f2" opacity="0.10" />
    </pattern>
  </defs>

  <rect width="170.08" height="226.77" fill="url(#bg)" />
  <rect width="170.08" height="226.77" fill="url(#dots)" />
  <rect x="10" y="10" width="150.08" height="206.77" rx="14" stroke="#7f8a8a" opacity="0.30" />

  <circle cx="85.04" cy="54" r="26" fill="#0a1f22" opacity="0.55" />
  <circle cx="85.04" cy="54" r="22" fill="#0c6b78" opacity="0.95" />

  <!-- neutral seal -->
  <circle cx="85.04" cy="54" r="12" stroke="#c8fbff" stroke-width="4" opacity="0.9" />
  <circle cx="85.04" cy="54" r="2.4" fill="#c8fbff" opacity="0.9" />
  <circle cx="85.04" cy="42" r="2.4" fill="#c8fbff" opacity="0.75" />
  <circle cx="97" cy="54" r="2.4" fill="#c8fbff" opacity="0.75" />
  <circle cx="85.04" cy="66" r="2.4" fill="#c8fbff" opacity="0.75" />
  <circle cx="73" cy="54" r="2.4" fill="#c8fbff" opacity="0.75" />
  <path d="M85.04 42v9" stroke="#7fe3f2" stroke-width="3.5" stroke-linecap="round" opacity="0.25" />
  <path d="M97 54h-9" stroke="#7fe3f2" stroke-width="3.5" stroke-linecap="round" opacity="0.25" />
  <path d="M85.04 66v-9" stroke="#7fe3f2" stroke-width="3.5" stroke-linecap="round" opacity="0.25" />
  <path d="M73 54h9" stroke="#7fe3f2" stroke-width="3.5" stroke-linecap="round" opacity="0.25" />

  <path d="M-10 170 C 24 146, 58 192, 96 166 S 150 154, 214 190" stroke="#23c1d2" stroke-width="12" opacity="0.14" stroke-linecap="round" />
  <path d="M-10 198 C 24 174, 62 214, 100 188 S 154 178, 214 212" stroke="#d7d2c3" stroke-width="7" opacity="0.10" stroke-linecap="round" />
</svg>
