<svg xmlns="http://www.w3.org/2000/svg" viewBox="0 0 170.08 226.77" fill="none">
  <defs>
    <linearGradient id="bg" x1="0" y1="0" x2="0" y2="1">
      <stop offset="0" stop-color="rgb(var(--zd-bg-deep))" />
      <stop offset="0.55" stop-color="rgb(var(--zd-primary-active))" />
      <stop offset="1" stop-color="rgb(var(--zd-primary))" />
    </linearGradient>
    <pattern id="dots" width="10" height="10" patternUnits="userSpaceOnUse">
      <circle cx="2" cy="2" r="0.8" fill="rgb(var(--zd-focus))" opacity="0.10" />
    </pattern>
  </defs>

  <rect width="170.08" height="226.77" fill="url(#bg)" />
  <rect width="170.08" height="226.77" fill="url(#dots)" />
  <rect x="10" y="10" width="150.08" height="206.77" rx="14" stroke="rgb(var(--zd-border))" opacity="0.30" />

  <circle cx="85.04" cy="54" r="26" fill="rgb(var(--zd-text))" opacity="0.55" />
  <circle cx="85.04" cy="54" r="22" fill="rgb(var(--zd-primary))" opacity="0.95" />

  <!-- custom icon (match badge) -->
  <g transform="translate(85.04 54) scale(0.5357) translate(-64 -64)">
    <circle cx="64" cy="52" r="14" fill="rgb(var(--zd-bg))" opacity="0.9" />
    <path
      d="M36 98c5-18 20-26 28-26s23 8 28 26"
      stroke="rgb(var(--zd-bg))"
      stroke-width="8"
      stroke-linecap="round"
      opacity="0.9"
    />
    <path d="M96 34l6 6" stroke="rgb(var(--zd-focus))" stroke-width="4" stroke-linecap="round" opacity="0.7" />
    <path d="M102 34l-6 6" stroke="rgb(var(--zd-focus))" stroke-width="4" stroke-linecap="round" opacity="0.7" />
  </g>

  <path d="M-10 170 C 24 146, 58 192, 96 166 S 150 154, 214 190" stroke="rgb(var(--zd-primary-hover))" stroke-width="12" opacity="0.14" stroke-linecap="round" />
  <path d="M-10 198 C 24 174, 62 214, 100 188 S 154 178, 214 212" stroke="rgb(var(--zd-surface))" stroke-width="7" opacity="0.10" stroke-linecap="round" />
</svg>
