<svg xmlns="http://www.w3.org/2000/svg" viewBox="0 0 170.08 226.77" fill="none">
  <defs>
    <linearGradient id="bg" x1="0" y1="0" x2="0" y2="1">
      <stop offset="0" stop-color="rgb(var(--zd-bg-deep))" />
      <stop offset="0.55" stop-color="rgb(var(--zd-primary-active))" />
      <stop offset="1" stop-color="rgb(var(--zd-border-strong))" />
    </linearGradient>
    <pattern id="dots" width="10" height="10" patternUnits="userSpaceOnUse">
      <circle cx="2" cy="2" r="0.8" fill="rgb(var(--zd-surface))" opacity="0.10" />
    </pattern>
  </defs>

  <rect width="170.08" height="226.77" fill="url(#bg)" />
  <rect width="170.08" height="226.77" fill="url(#dots)" />
  <rect x="10" y="10" width="150.08" height="206.77" rx="14" stroke="rgb(var(--zd-border))" opacity="0.30" />

  <circle cx="85.04" cy="54" r="26" fill="rgb(var(--zd-text))" opacity="0.55" />
  <circle cx="85.04" cy="54" r="22" fill="rgb(var(--zd-border-strong))" opacity="0.95" />

  <!-- rock -->
  <path d="M72 64l7-18 11-8 12 10 4 17-10 9H84L72 64Z" fill="rgb(var(--zd-text))" opacity="0.30" />
  <path d="M72 64l7-18 11-8 12 10 4 17-10 9H84L72 64Z" stroke="rgb(var(--zd-bg))" stroke-width="4" stroke-linejoin="round" opacity="0.85" />
  <path d="M90 44l-4 9 5 5-5 11" stroke="rgb(var(--zd-focus))" stroke-width="3.5" stroke-linecap="round" stroke-linejoin="round" opacity="0.25" />

  <path d="M-10 170 C 14 148, 52 196, 90 170 S 146 160, 214 194" stroke="rgb(var(--zd-surface-muted))" stroke-width="12" opacity="0.14" stroke-linecap="round" />
  <path d="M-10 198 C 20 172, 56 214, 92 184 S 148 174, 214 210" stroke="rgb(var(--zd-primary-hover))" stroke-width="7" opacity="0.10" stroke-linecap="round" />
</svg>
